<?xml version="1.0" encoding="utf-8"?>
<!-- Generator: Adobe Illustrator 19.2.0, SVG Export Plug-In . SVG Version: 6.00 Build 0)  -->
<svg version="1.1" id="Camada_1" xmlns="http://www.w3.org/2000/svg" xmlns:xlink="http://www.w3.org/1999/xlink" x="0px" y="0px"
	 viewBox="0 0 313 52" style="enable-background:new 0 0 313 52;" xml:space="preserve">
<style type="text/css">
	.st0{fill:#FFFFFF;}
</style>
<g>
	<path class="st0" d="M36.7,50.5V25.3L26.2,42.6c-0.1,0.3-0.3,0.4-0.6,0.5c-0.3,0.1-0.5,0.1-0.8,0.1c-0.3,0-0.5,0-0.8-0.1
		c-0.3-0.1-0.5-0.3-0.6-0.5L12.8,25.3v25.2H0V1.4h12c0.4,0,0.8,0.2,1.1,0.6l11.6,19.4L36.4,2c0.3-0.4,0.6-0.6,1-0.6h12.1v49.1H36.7z
		"/>
	<path class="st0" d="M243.2,50.5V25.3l-10.5,17.3c-0.1,0.3-0.3,0.4-0.6,0.5c-0.3,0.1-0.5,0.1-0.8,0.1c-0.3,0-0.5,0-0.8-0.1
		c-0.3-0.1-0.5-0.3-0.6-0.5l-10.5-17.3v25.2h-12.8V1.4h12c0.4,0,0.8,0.2,1.1,0.6l11.6,19.4L243,2c0.3-0.4,0.6-0.6,1-0.6H256v49.1
		H243.2z"/>
	<path class="st0" d="M287.1,51.9c-3.6,0-7-0.7-10.2-2c-3.2-1.3-5.9-3.2-8.3-5.5c-2.4-2.3-4.2-5.1-5.6-8.3
		c-1.4-3.2-2.1-6.5-2.1-10.1c0-3.6,0.7-7,2.1-10.1c1.4-3.2,3.2-5.9,5.6-8.3c2.4-2.3,5.1-4.2,8.3-5.6c3.2-1.4,6.6-2.1,10.2-2.1
		c3.6,0,7,0.7,10.1,2.1c3.2,1.4,6,3.2,8.3,5.6c2.4,2.3,4.2,5.1,5.6,8.3c1.4,3.2,2.1,6.5,2.1,10.1c0,3.6-0.7,7-2.1,10.1
		c-1.4,3.2-3.2,5.9-5.6,8.3c-2.4,2.3-5.1,4.2-8.3,5.5C294.1,51.2,290.7,51.9,287.1,51.9z M287.1,12.5c-1.9,0-3.6,0.4-5.2,1.1
		c-1.6,0.7-2.9,1.7-4.1,2.9c-1.1,1.2-2,2.6-2.7,4.3c-0.7,1.6-1,3.3-1,5.2c0,1.8,0.3,3.5,1,5.1c0.7,1.6,1.5,3.1,2.7,4.3
		c1.1,1.2,2.5,2.2,4.1,2.9c1.6,0.7,3.3,1.1,5.2,1.1c1.9,0,3.6-0.4,5.2-1.1c1.6-0.7,2.9-1.7,4.1-2.9c1.1-1.2,2-2.7,2.7-4.3
		c0.7-1.6,1-3.4,1-5.1c0-1.8-0.3-3.5-1-5.2c-0.7-1.6-1.5-3-2.7-4.3c-1.1-1.2-2.5-2.2-4.1-2.9C290.7,12.9,289,12.5,287.1,12.5z"/>
	<circle class="st0" cx="174.1" cy="26.1" r="0"/>
	<g>
		<polygon class="st0" points="122,20.3 122,2 109,2 109,51 122,51 122,32.2 		"/>
		<polygon class="st0" points="140,2 140,20.3 140,32.2 140,51 153,51 153,2 		"/>
	</g>
	<g>
		<polygon class="st0" points="174.4,32 199,32 199,21 162,21 162,32 173.8,32 		"/>
		<polyline class="st0" points="162,40 162,51 200,51 200,40 		"/>
		<polygon class="st0" points="162,2 162,14 174.1,14 177.7,14 200,14 200,2 		"/>
	</g>
	<g>
		<polyline class="st0" points="75,32.3 78.9,19.4 82.7,32.3 82.7,32.3 86.4,44 88.9,51 102.8,51 84.6,2 73.1,2 54.9,51 68.8,51 
			71.2,44.1 		"/>
	</g>
</g>
</svg>
